<svg width="379" height="343" viewBox="0 0 379 343" fill="none" xmlns="http://www.w3.org/2000/svg">
<path d="M296.599 315.13H160.099C158.778 315.13 157.503 314.642 156.52 313.758C155.537 312.875 154.916 311.659 154.775 310.345L128.714 66.7121C128.634 65.9651 128.712 65.2097 128.943 64.4949C129.174 63.7802 129.553 63.122 130.056 62.5633C130.558 62.0046 131.172 61.5577 131.858 61.2519C132.544 60.9461 133.287 60.788 134.038 60.7881H270.538C271.859 60.7882 273.134 61.277 274.117 62.1603C275.1 63.0436 275.721 64.2592 275.862 65.5731L301.928 309.204C302.008 309.952 301.93 310.708 301.699 311.423C301.468 312.138 301.089 312.797 300.586 313.356C300.083 313.915 299.468 314.362 298.781 314.668C298.095 314.973 297.351 315.131 296.599 315.13Z" fill="#810A8B"/>
<path d="M288.264 299.308H174.064C172.917 299.308 171.809 298.884 170.956 298.117C170.102 297.35 169.562 296.294 169.44 295.153L144.955 75.4673C144.886 74.8186 144.954 74.1625 145.154 73.5417C145.355 72.9209 145.684 72.3493 146.12 71.864C146.556 71.3788 147.09 70.9907 147.686 70.7251C148.282 70.4595 148.927 70.3222 149.579 70.3223H263.779C264.927 70.3222 266.034 70.7465 266.887 71.5135C267.741 72.2806 268.281 73.3362 268.403 74.4773L292.888 294.163C292.958 294.812 292.89 295.468 292.689 296.089C292.488 296.71 292.159 297.281 291.723 297.767C291.287 298.252 290.754 298.64 290.158 298.906C289.562 299.171 288.917 299.308 288.264 299.308Z" fill="url(#paint0_linear_1622_431)"/>
<path d="M197.425 203.602C197.425 204.986 197.152 206.356 196.623 207.635C196.093 208.913 195.317 210.075 194.338 211.054C193.36 212.032 192.198 212.809 190.919 213.338C189.641 213.868 188.27 214.14 186.886 214.14C184.092 214.14 181.411 213.03 179.435 211.053C177.459 209.077 176.349 206.397 176.349 203.602C176.349 200.807 177.459 198.127 179.435 196.15C181.411 194.174 184.092 193.064 186.886 193.064C189.681 193.064 192.362 194.174 194.338 196.15C196.314 198.127 197.425 200.807 197.425 203.602Z" fill="#F37168"/>
<path d="M186.784 199.899C186.784 199.899 183.104 196.654 180.5 199.772C176.925 204.052 186.784 209.497 186.784 209.497C186.784 209.497 196.821 203.878 193.31 199.549C190.654 196.278 186.784 199.899 186.784 199.899Z" fill="white"/>
<path d="M255.13 203.602C255.13 206.673 253.91 209.618 251.738 211.789C249.567 213.961 246.622 215.181 243.551 215.181C240.48 215.181 237.535 213.961 235.364 211.789C233.193 209.618 231.973 206.673 231.973 203.602C231.973 200.531 233.193 197.587 235.364 195.415C237.535 193.244 240.48 192.024 243.551 192.024C246.622 192.024 249.566 193.244 251.738 195.415C253.909 197.586 255.129 200.531 255.13 203.602Z" fill="#430A56"/>
<path d="M243.293 195.975C244.793 195.768 246.093 199.496 245.985 200.686C245.877 201.876 248.785 200.531 250.179 201.566C251.573 202.601 251.163 207.986 250.179 208.348C249.195 208.71 245.228 208.762 243.95 208.089C243.305 207.701 242.561 207.511 241.81 207.542L241.152 201.909C241.772 201.683 242.342 201.338 242.829 200.892C243.708 200.114 243.293 195.975 243.293 195.975ZM236.614 209.175C236.977 209.486 241.066 210.469 241.273 208.398C241.48 206.327 240.445 201.926 240.445 201.926C240.445 201.926 237.599 201.782 236.614 202.286C236.235 202.484 236.252 208.867 236.615 209.178L236.614 209.175Z" fill="white"/>
<path d="M215.939 199.818H202.218C200.866 199.818 199.77 200.914 199.77 202.266V202.267C199.77 203.619 200.866 204.715 202.218 204.715H215.939C217.291 204.715 218.387 203.619 218.387 202.267V202.266C218.387 200.914 217.291 199.818 215.939 199.818Z" fill="#810A8B"/>
<path d="M215.939 206.164H202.218C200.866 206.164 199.77 207.26 199.77 208.612V208.613C199.77 209.965 200.866 211.061 202.218 211.061H215.939C217.291 211.061 218.387 209.965 218.387 208.613V208.612C218.387 207.26 217.291 206.164 215.939 206.164Z" fill="#810A8B"/>
<path d="M275.361 199.818H261.64C260.288 199.818 259.192 200.914 259.192 202.266V202.267C259.192 203.619 260.288 204.715 261.64 204.715H275.361C276.713 204.715 277.809 203.619 277.809 202.267V202.266C277.809 200.914 276.713 199.818 275.361 199.818Z" fill="#810A8B"/>
<path d="M275.361 206.164H261.64C260.288 206.164 259.192 207.26 259.192 208.612V208.613C259.192 209.965 260.288 211.061 261.64 211.061H275.361C276.713 211.061 277.809 209.965 277.809 208.613V208.612C277.809 207.26 276.713 206.164 275.361 206.164Z" fill="#810A8B"/>
<path d="M274.493 239.934H185.053C184.523 239.932 184.015 239.721 183.64 239.346C183.266 238.972 183.055 238.464 183.053 237.934C183.055 237.404 183.266 236.897 183.64 236.522C184.015 236.147 184.523 235.936 185.053 235.934H274.493C275.023 235.936 275.53 236.147 275.905 236.522C276.279 236.897 276.491 237.404 276.493 237.934C276.491 238.464 276.279 238.972 275.905 239.346C275.53 239.721 275.023 239.932 274.493 239.934Z" fill="#810A8B"/>
<path d="M275.81 247.486H186.37C185.84 247.484 185.333 247.273 184.958 246.898C184.583 246.523 184.372 246.016 184.37 245.486C184.372 244.956 184.583 244.448 184.958 244.074C185.333 243.699 185.84 243.488 186.37 243.486H275.81C276.34 243.488 276.848 243.699 277.222 244.074C277.597 244.448 277.808 244.956 277.81 245.486C277.808 246.016 277.597 246.523 277.222 246.898C276.848 247.273 276.34 247.484 275.81 247.486Z" fill="#810A8B"/>
<path d="M262.203 255.683H172.763C172.233 255.681 171.725 255.47 171.351 255.095C170.976 254.721 170.765 254.213 170.763 253.683C170.765 253.153 170.976 252.646 171.351 252.271C171.725 251.896 172.233 251.685 172.763 251.683H262.203C262.732 251.685 263.24 251.896 263.615 252.271C263.99 252.646 264.201 253.153 264.203 253.683C264.201 254.213 263.99 254.721 263.615 255.095C263.24 255.47 262.732 255.681 262.203 255.683Z" fill="#810A8B"/>
<path d="M160.883 315.13H156.069C155.189 315.13 154.339 314.805 153.684 314.218C153.028 313.63 152.612 312.821 152.516 311.946L125.416 65.1311C125.356 64.5844 125.412 64.0312 125.58 63.5076C125.748 62.9839 126.025 62.5016 126.392 62.092C126.759 61.6825 127.208 61.3548 127.71 61.1305C128.212 60.9062 128.756 60.7902 129.306 60.7901H133.437C134.401 60.7903 135.331 61.1461 136.049 61.7896C136.767 62.4331 137.222 63.3188 137.327 64.2771L164.434 311.167C164.489 311.666 164.437 312.171 164.284 312.649C164.13 313.127 163.878 313.567 163.543 313.941C163.208 314.315 162.798 314.614 162.34 314.819C161.881 315.024 161.385 315.13 160.883 315.13Z" fill="#430A56"/>
<path d="M255.198 308.122H230.888C230.53 308.121 230.187 307.979 229.934 307.725C229.681 307.472 229.539 307.129 229.538 306.771C229.539 306.414 229.682 306.071 229.935 305.818C230.188 305.565 230.53 305.422 230.888 305.421H255.198C255.556 305.422 255.898 305.565 256.151 305.818C256.404 306.071 256.547 306.414 256.548 306.771C256.547 307.129 256.405 307.472 256.152 307.725C255.899 307.979 255.556 308.121 255.198 308.122Z" fill="#0F2D5C"/>
<path d="M227.457 67.3371C228.414 67.3371 229.191 66.5608 229.191 65.6031C229.191 64.6455 228.414 63.8691 227.457 63.8691C226.499 63.8691 225.723 64.6455 225.723 65.6031C225.723 66.5608 226.499 67.3371 227.457 67.3371Z" fill="#0F2D5C"/>
<path d="M234.26 67.3371C235.218 67.3371 235.994 66.5608 235.994 65.6031C235.994 64.6455 235.218 63.8691 234.26 63.8691C233.303 63.8691 232.526 64.6455 232.526 65.6031C232.526 66.5608 233.303 67.3371 234.26 67.3371Z" fill="#0F2D5C"/>
<path d="M216.652 67.3371H197.977C197.518 67.3357 197.077 67.1527 196.752 66.8278C196.428 66.5029 196.244 66.0626 196.243 65.6031C196.244 65.1436 196.428 64.7034 196.752 64.3784C197.077 64.0535 197.518 63.8704 197.977 63.8691H216.652C217.112 63.8704 217.552 64.0535 217.877 64.3784C218.202 64.7034 218.385 65.1436 218.386 65.6031C218.385 66.0626 218.202 66.5029 217.877 66.8278C217.552 67.1527 217.112 67.3357 216.652 67.3371Z" fill="#0F2D5C"/>
<path d="M235.517 223.993H88.4639C84.0456 223.993 80.4639 227.575 80.4639 231.993V309.795C80.4639 314.213 84.0456 317.795 88.4639 317.795H235.517C239.935 317.795 243.517 314.213 243.517 309.795V231.993C243.517 227.575 239.935 223.993 235.517 223.993Z" fill="#0F2D5C"/>
<path d="M232.329 228.128H91.6504C89.4413 228.128 87.6504 229.919 87.6504 232.128V309.661C87.6504 311.87 89.4413 313.661 91.6504 313.661H232.329C234.539 313.661 236.329 311.87 236.329 309.661V232.128C236.329 229.919 234.539 228.128 232.329 228.128Z" fill="#7A1999"/>
<g opacity="0.4">
<g opacity="0.4">
<path opacity="0.4" d="M159.99 296.997C152.023 296.988 144.385 293.819 138.751 288.185C133.118 282.551 129.949 274.913 129.939 266.946C129.948 258.979 133.118 251.34 138.751 245.706C144.385 240.072 152.023 236.903 159.99 236.894C167.958 236.903 175.597 240.072 181.23 245.706C186.864 251.34 190.033 258.978 190.042 266.946C190.033 274.913 186.864 282.552 181.23 288.185C175.596 293.819 167.958 296.988 159.99 296.997ZM159.99 240.897C153.084 240.905 146.463 243.652 141.579 248.535C136.695 253.419 133.948 260.04 133.94 266.947C133.948 273.853 136.695 280.475 141.579 285.358C146.463 290.241 153.084 292.988 159.99 292.996C166.897 292.988 173.518 290.241 178.402 285.358C183.285 280.475 186.033 273.853 186.041 266.947C186.033 260.04 183.286 253.418 178.403 248.535C173.519 243.651 166.897 240.904 159.99 240.896V240.897Z" fill="white"/>
</g>
</g>
<path opacity="0.4" d="M175.155 263.618C175.739 263.956 176.224 264.441 176.561 265.025C176.898 265.609 177.076 266.272 177.076 266.947C177.076 267.621 176.898 268.284 176.561 268.868C176.224 269.453 175.739 269.938 175.155 270.275L165.696 275.736L156.237 281.197C155.652 281.535 154.99 281.712 154.315 281.712C153.64 281.712 152.977 281.535 152.393 281.197C151.809 280.86 151.324 280.375 150.986 279.791C150.649 279.207 150.471 278.544 150.471 277.869V256.018C150.471 255.343 150.648 254.681 150.986 254.096C151.323 253.512 151.808 253.027 152.393 252.689C152.977 252.352 153.64 252.174 154.315 252.174C154.989 252.174 155.652 252.352 156.237 252.689L165.696 258.151L175.155 263.618Z" fill="white"/>
<path opacity="0.4" d="M103.944 304.602C104.088 304.685 104.206 304.804 104.289 304.948C104.372 305.091 104.416 305.254 104.416 305.42C104.416 305.585 104.372 305.748 104.289 305.892C104.206 306.035 104.088 306.155 103.944 306.238L101.619 307.581L99.293 308.924C99.1494 309.007 98.9866 309.05 98.8208 309.05C98.655 309.05 98.4922 309.006 98.3486 308.924C98.2051 308.841 98.0856 308.721 98.0027 308.578C97.9197 308.434 97.8761 308.272 97.876 308.106V302.736C97.8761 302.57 97.9197 302.407 98.0027 302.264C98.0856 302.12 98.2051 302.001 98.3486 301.918C98.4922 301.835 98.655 301.791 98.8208 301.791C98.9866 301.791 99.1494 301.835 99.293 301.918L101.619 303.261L103.944 304.602Z" fill="white"/>
<path opacity="0.4" d="M112.373 309.051C112.205 309.051 112.044 308.984 111.925 308.865C111.806 308.746 111.74 308.585 111.739 308.417V302.417C111.74 302.249 111.806 302.088 111.925 301.969C112.044 301.85 112.205 301.783 112.373 301.783C112.541 301.783 112.702 301.85 112.821 301.969C112.94 302.088 113.007 302.249 113.007 302.417V308.417C113.007 308.585 112.94 308.746 112.821 308.865C112.702 308.984 112.541 309.051 112.373 309.051Z" fill="white"/>
<path opacity="0.4" d="M115.223 309.051C115.055 309.051 114.894 308.984 114.775 308.865C114.656 308.746 114.589 308.585 114.589 308.417V302.417C114.589 302.249 114.656 302.088 114.775 301.969C114.894 301.85 115.055 301.783 115.223 301.783C115.391 301.784 115.552 301.851 115.67 301.969C115.789 302.088 115.855 302.249 115.856 302.417V308.417C115.855 308.585 115.789 308.746 115.67 308.865C115.552 308.984 115.391 309.051 115.223 309.051Z" fill="white"/>
<path opacity="0.4" d="M221.571 304.696V304.237C221.571 303.955 221.683 303.684 221.883 303.484C222.082 303.284 222.353 303.172 222.636 303.172H223.185V301.789H221.907C221.451 301.789 221.013 301.97 220.69 302.293C220.368 302.615 220.187 303.053 220.187 303.509V304.696H221.571Z" fill="white"/>
<path opacity="0.4" d="M226.068 305.963V306.603C226.068 306.886 225.956 307.157 225.756 307.356C225.556 307.556 225.286 307.668 225.003 307.668H224.454V309.051H225.732C226.188 309.051 226.626 308.87 226.948 308.548C227.271 308.225 227.452 307.788 227.452 307.331V305.963H226.068Z" fill="white"/>
<path opacity="0.4" d="M224.453 303.168H225.002C225.285 303.168 225.555 303.28 225.755 303.48C225.955 303.68 226.067 303.951 226.067 304.233V304.692H227.45V303.505C227.45 303.049 227.269 302.611 226.946 302.289C226.624 301.966 226.186 301.785 225.73 301.785H224.452L224.453 303.168Z" fill="white"/>
<path opacity="0.4" d="M223.185 307.668H222.636C222.497 307.668 222.358 307.641 222.229 307.587C222.1 307.534 221.982 307.455 221.883 307.356C221.784 307.257 221.706 307.14 221.652 307.011C221.599 306.882 221.571 306.743 221.571 306.603V305.963H220.188V307.331C220.188 307.788 220.37 308.225 220.692 308.548C221.015 308.87 221.452 309.051 221.908 309.051H223.186L223.185 307.668Z" fill="white"/>
<path opacity="0.4" d="M203.717 304.695H130.602C130.447 304.211 130.142 303.788 129.731 303.489C129.32 303.189 128.824 303.028 128.316 303.028C127.807 303.028 127.312 303.189 126.901 303.489C126.49 303.788 126.185 304.211 126.03 304.695H123.947C123.753 304.696 123.567 304.773 123.429 304.91C123.292 305.048 123.215 305.234 123.214 305.428C123.214 305.622 123.292 305.808 123.429 305.946C123.566 306.083 123.752 306.161 123.947 306.162H126.03C126.185 306.646 126.49 307.068 126.901 307.368C127.312 307.668 127.807 307.829 128.316 307.829C128.824 307.829 129.32 307.668 129.731 307.368C130.142 307.068 130.447 306.646 130.602 306.162H203.717C203.911 306.161 204.098 306.084 204.235 305.946C204.373 305.809 204.45 305.622 204.451 305.428C204.45 305.233 204.372 305.047 204.235 304.91C204.097 304.773 203.911 304.695 203.717 304.695Z" fill="white"/>
<path opacity="0.4" d="M208.948 303.028H207.349V308.121H208.948L211.749 310.489V300.66L208.948 303.028Z" fill="white"/>
<path opacity="0.4" d="M214.725 305.43L215.196 304.959C215.274 304.88 215.318 304.774 215.318 304.664C215.318 304.553 215.274 304.447 215.196 304.369C215.118 304.291 215.011 304.247 214.901 304.247C214.79 304.247 214.684 304.291 214.606 304.369L214.135 304.841L213.663 304.369C213.585 304.291 213.479 304.247 213.368 304.247C213.258 304.247 213.152 304.291 213.074 304.369C212.996 304.447 212.952 304.553 212.952 304.664C212.952 304.774 212.996 304.88 213.074 304.959L213.545 305.43L213.074 305.902C212.996 305.98 212.952 306.086 212.952 306.197C212.952 306.307 212.996 306.413 213.074 306.492C213.152 306.57 213.258 306.614 213.368 306.614C213.479 306.614 213.585 306.57 213.663 306.492L214.135 306.02L214.606 306.492C214.684 306.57 214.79 306.614 214.901 306.614C215.011 306.614 215.118 306.57 215.196 306.492C215.274 306.413 215.318 306.307 215.318 306.197C215.318 306.086 215.274 305.98 215.196 305.902L214.725 305.43Z" fill="white"/>
<path d="M361.418 328.175C361.418 328.175 373.298 329.495 376.126 328.175C378.954 326.855 379.897 329.901 372.543 333.563C365.189 337.225 361.983 340.054 359.532 339.112C357.081 338.17 355.384 333.438 355.761 330.712C356.138 327.986 361.418 328.175 361.418 328.175Z" fill="#0F2D5C"/>
<path d="M308.053 326.667C308.053 326.667 307.487 335.719 310.315 337.604C313.143 339.489 316.573 342.035 309.939 342.035C303.305 342.035 301.539 338.924 299.464 335.718C297.389 332.512 295.233 330.029 298.183 327.861C301.133 325.693 301.264 323.649 301.83 323.649C302.396 323.649 308.053 326.667 308.053 326.667Z" fill="#0F2D5C"/>
<path d="M347.268 241.717C347.268 294.891 308.875 331.763 308.875 331.763C308.875 331.763 299.751 328.549 299.468 325.155C299.185 321.761 314.445 297.436 314.445 279.335V224.746L347.268 241.717Z" fill="#0E3A82"/>
<path d="M314.443 224.746V269.865C320.384 283.302 323.769 297.728 324.427 312.405C335.072 296.475 347.266 271.685 347.266 241.716L314.443 224.746Z" fill="#0F2D5C"/>
<path d="M314.457 215.695C313.608 260.101 352.201 332.226 354.851 333.357C357.501 334.488 365.003 330.726 364.572 327.983C354.337 262.93 352.357 219.655 352.357 219.655L314.457 215.695Z" fill="#0E3A82"/>
<path d="M356.882 159.278C357.5 159.82 358.261 160.172 359.074 160.291C359.887 160.41 360.717 160.291 361.465 159.949C364.01 158.723 373.305 152.155 373.022 150.549C372.739 148.943 368.396 148.563 368.396 148.563C368.396 148.563 354.941 159.199 356.882 159.278Z" fill="#255096"/>
<path d="M359.33 159.028C357.587 158.749 363.323 154.188 365.198 152.303C366.158 151.309 367.189 150.384 368.283 149.537C368.283 149.537 371.489 149.927 371.489 150.549C371.489 151.171 362.295 158.512 362.295 158.512C361.334 158.815 360.337 158.989 359.33 159.028Z" fill="#FFC34E"/>
<path d="M348.077 167.233C348.077 167.233 351.424 161.576 353.027 160.068C354.63 158.56 360.041 155.635 360.862 155.617C362.262 155.586 356.044 159.785 356.044 159.785C356.044 159.785 356.892 165.253 356.138 167.233C355.384 169.213 347.464 171.853 347.464 171.853L348.077 167.233Z" fill="#F09959"/>
<path d="M341.854 173.171C341.854 173.171 347.322 164.971 348.548 165.534C349.774 166.097 353.073 173.171 353.073 173.171C353.073 173.171 343.457 183.165 343.457 181.279C343.457 179.393 341.854 173.171 341.854 173.171Z" fill="#91D5FF"/>
<path d="M326.731 129.24C326.731 129.24 321.074 149.228 317.303 157.525C313.532 165.822 311.646 181.285 312.403 208.439C313.16 235.593 307.878 234.839 315.798 238.233C323.718 241.627 352.004 235.97 355.775 227.296C359.546 218.622 353.25 183.307 343.895 170.348C334.66 157.554 330.507 153 330.507 149.982C330.507 146.964 334.157 134.142 334.157 134.142L326.731 129.24Z" fill="#F09959"/>
<path d="M355.771 227.297C359.542 218.623 353.246 183.308 343.891 170.349C339.591 164.391 336.391 160.22 334.202 157.159C329.754 154.409 325 152.191 320.035 150.549C319.086 153.223 318.147 155.668 317.302 157.526C313.531 165.826 311.645 181.286 312.402 208.44C313.159 235.594 307.877 234.84 315.797 238.234C323.717 241.628 352 235.972 355.771 227.297Z" fill="#B3E2FF"/>
<path d="M316.673 146.969C316.767 145.417 336.913 153.38 337.039 154.889C337.514 158.41 338.519 161.838 340.022 165.057C341.69 168.089 311.975 185.024 313.067 176.779C314.159 168.534 316.422 151.114 316.673 146.969Z" fill="#B3E2FF"/>
<path d="M330.52 150.319C330.51 150.205 330.503 150.092 330.503 149.982C330.503 146.965 334.153 134.142 334.153 134.142L326.731 129.242C326.731 129.242 325.418 133.883 323.631 139.619C325.94 146.499 328.101 148.851 330.52 150.319Z" fill="#E38540"/>
<path d="M347.542 139.027C345.974 146.135 341.064 151.19 335.39 149.8C332.291 148.802 329.687 146.663 328.107 143.816C326.527 140.969 326.089 137.627 326.882 134.469C328.591 127.393 334.347 122.62 340.051 123.879C345.755 125.138 349.11 131.919 347.542 139.027Z" fill="#F09959"/>
<path d="M353.983 185.299C359.132 176.406 359.708 168.099 363.357 165.506C368.49 161.857 372.705 153.696 370.847 153.374C368.989 153.052 361.464 159.946 361.464 159.946C361.464 159.946 363.422 157.266 362.954 157.046C362.486 156.826 358.696 159.574 358.109 162.824C357.522 166.074 350.24 181.012 344.132 185.796C338.024 190.58 348.834 194.193 353.983 185.299Z" fill="#F09959"/>
<path d="M320.625 162.892C311.5 165.164 315.674 192.719 323.367 209.062C331.06 225.405 345.516 211.286 350.922 207.282C352.595 206.078 354.048 204.593 355.216 202.895C353.48 193.143 350.505 182.681 346.832 175.319C338.22 185.428 334.125 159.531 320.625 162.892Z" fill="#91D5FF"/>
<path d="M323.365 160.913C311.891 162.063 318.173 190.707 326.565 202.273C334.957 213.839 346.899 202.65 350.665 195.988C354.431 189.326 362.074 177.996 362.074 170.625C362.074 169.242 359.245 168.959 355.851 169.21C352.651 169.447 338.216 189.324 338.216 189.324C338.216 189.324 333.398 159.908 323.365 160.913Z" fill="#B3E2FF"/>
<path d="M351.046 124.206C358.062 127.16 353.859 136.506 350.16 136.854C346.461 137.202 342.183 130.383 339.986 130.154C337.789 129.925 340.43 133.969 338.474 134.894C337.423 135.32 336.483 135.983 335.729 136.831C334.974 137.679 334.425 138.689 334.124 139.783C333.554 142.211 331.993 147.495 334.545 147.726C337.097 147.957 339.872 145.183 341.606 145.067C342.7 145.007 343.796 145.138 344.846 145.453C344.846 145.453 340.445 151.541 337.208 151.888C333.971 152.235 330.447 147.508 327.934 143.513C325.421 139.518 326.488 136.856 326.488 136.856C326.488 136.856 323.917 139.75 322.299 139.518C320.681 139.286 324.727 136.975 324.842 130.154C324.957 123.333 327.963 119.754 331.663 119.754C335.363 119.754 334.9 117.871 340.55 118.02C345.641 118.144 349.399 123.513 351.046 124.206Z" fill="#0F2D5C"/>
<path d="M335.619 138.142C335.783 139.903 334.879 141.427 333.599 141.542C332.319 141.657 331.151 140.329 330.987 138.568C330.823 136.807 331.727 135.283 333.007 135.168C334.287 135.053 335.456 136.381 335.619 138.142Z" fill="#F09959"/>
<path d="M16.2722 309.253C10.2142 316.003 -1.123 314.996 0.695003 317.907C2.513 320.818 10.6651 320.072 15.2521 319.828C22.8801 319.422 20.7721 315.051 21.3781 313.493C21.9841 311.935 16.2722 309.253 16.2722 309.253Z" fill="#0F2D5C"/>
<path d="M67.6828 213.797C67.6828 213.797 29.833 242.873 30.353 248.844C30.873 254.815 58.253 304.632 60.529 304.644C62.805 304.656 67.967 302.097 68.739 300.911C69.511 299.725 67.217 265.23 64.362 261.711C61.507 258.192 86.2438 222.883 86.2438 222.883L67.6828 213.797Z" fill="#0F2D5C"/>
<path d="M100.578 207.567C100.578 207.567 109.223 227.297 104.186 232.749C99.149 238.201 81.4731 242.235 75.5251 251.181C62.4491 270.85 62.2851 284.793 44.3721 299.864C26.4591 314.935 21.3052 315.304 21.3052 315.304L15.2959 310.035C15.2959 310.035 35.2862 282.853 43.0742 261.046C50.8622 239.239 71.374 213.537 71.374 213.537L100.578 207.567Z" fill="#0E3A82"/>
<path d="M65.366 161.131C64.8192 161.611 64.1452 161.922 63.4253 162.028C62.7054 162.133 61.9705 162.028 61.3091 161.725C59.0551 160.64 50.8249 154.825 51.0759 153.405C51.3269 151.985 55.176 151.646 55.176 151.646C55.176 151.646 67.086 161.064 65.366 161.131Z" fill="#255096"/>
<path d="M63.1987 160.912C64.7417 160.665 59.6637 156.627 58.0037 154.957C57.1526 154.076 56.2396 153.258 55.2717 152.508C55.2717 152.508 52.4326 152.854 52.4326 153.408C52.4326 153.962 60.5728 160.459 60.5728 160.459C61.424 160.726 62.3071 160.878 63.1987 160.912Z" fill="#FFC34E"/>
<path d="M73.1628 168.178C73.1628 168.178 70.1988 163.169 68.7798 161.833C67.3608 160.497 62.5688 157.908 61.8418 157.892C60.5988 157.865 66.1086 161.582 66.1086 161.582C66.1086 161.582 65.3576 166.424 66.0256 168.182C66.6936 169.94 73.7058 172.273 73.7058 172.273L73.1628 168.178Z" fill="#F09959"/>
<path d="M78.6733 173.434C78.6733 173.434 73.8313 166.171 72.7463 166.672C71.6613 167.173 68.7393 173.434 68.7393 173.434C68.7393 173.434 77.2544 182.283 77.2544 180.613C77.5635 178.19 78.0376 175.792 78.6733 173.434Z" fill="#FB8627"/>
<path d="M92.0623 134.538C92.0623 134.538 97.0715 152.238 100.41 159.582C103.749 166.926 105.419 180.619 104.751 204.662C104.083 228.705 108.758 228.037 101.746 231.042C94.7344 234.047 69.6893 229.042 66.3463 221.358C63.0033 213.674 68.5823 182.409 76.8653 170.935C85.0433 159.607 88.7193 155.574 88.7193 152.903C88.7193 150.232 85.4874 138.878 85.4874 138.878L92.0623 134.538Z" fill="#F09959"/>
<path d="M66.3496 221.358C63.0106 213.678 68.5857 182.41 76.8687 170.936C80.6767 165.661 83.5085 161.968 85.4475 159.257C89.3852 156.822 93.5949 154.857 97.9905 153.404C98.8305 155.772 99.6617 157.937 100.41 159.582C103.749 166.928 105.418 180.619 104.75 204.662C104.083 228.705 108.758 228.037 101.746 231.042C94.7336 234.047 69.6886 229.039 66.3496 221.358Z" fill="url(#paint1_linear_1622_431)"/>
<path d="M100.967 150.232C100.884 148.858 83.0465 155.909 82.9345 157.245C82.5137 160.361 81.6231 163.395 80.2934 166.245C78.8154 168.93 105.126 183.924 104.159 176.624C103.192 169.324 101.189 153.905 100.967 150.232Z" fill="url(#paint2_linear_1622_431)"/>
<path d="M88.7083 153.202C88.7187 153.102 88.7239 153.002 88.7241 152.902C88.7241 150.23 85.4922 138.877 85.4922 138.877L92.0632 134.536C92.0632 134.536 93.2262 138.645 94.8042 143.724C92.7632 149.823 90.8533 151.902 88.7083 153.202Z" fill="#E38540"/>
<path d="M75.5289 143.174C76.7429 148.674 80.5429 152.587 84.9339 151.511C87.3328 150.739 89.3479 149.083 90.5706 146.879C91.7934 144.675 92.132 142.089 91.5179 139.645C90.1949 134.169 85.741 130.474 81.326 131.445C76.911 132.416 74.3129 137.673 75.5289 143.174Z" fill="#F09959"/>
<path d="M67.9333 184.173C63.3733 176.299 62.8645 168.944 59.6335 166.648C55.0895 163.417 51.3564 156.191 53.0024 155.907C54.6484 155.623 61.3093 161.726 61.3093 161.726C61.3093 161.726 59.5755 159.353 59.9895 159.155C60.4035 158.957 63.7595 161.393 64.2805 164.271C64.8015 167.149 71.2475 180.371 76.6555 184.61C82.0635 188.849 72.4933 192.047 67.9333 184.173Z" fill="#F09959"/>
<path d="M97.4658 164.333C105.546 166.344 101.85 190.743 95.0388 205.213C88.2278 219.683 75.4279 207.182 70.6389 203.638C69.1583 202.571 67.8727 201.257 66.8389 199.753C68.3749 191.119 71.009 181.853 74.261 175.337C81.891 184.286 85.5158 161.357 97.4658 164.333Z" fill="url(#paint3_linear_1622_431)"/>
<path d="M95.0417 162.58C105.202 163.599 99.6417 188.96 92.2097 199.201C84.7777 209.442 74.2097 199.535 70.8667 193.636C67.5237 187.737 60.7666 177.706 60.7666 171.179C60.7666 169.955 63.2666 169.704 66.2766 169.927C69.1066 170.137 81.8916 187.736 81.8916 187.736C81.8916 187.736 86.1587 161.692 95.0417 162.58Z" fill="url(#paint4_linear_1622_431)"/>
<path d="M60.5291 298.433C60.9871 309.333 48.529 318.163 53.718 318.942C58.907 319.721 62.9982 316.211 65.3682 313.552C67.7382 310.893 70.3122 310.107 69.6182 307.095C68.9242 304.083 68.8791 297.731 68.1541 295.654C67.4291 293.577 60.5291 298.433 60.5291 298.433Z" fill="#0F2D5C"/>
<path d="M79.5731 126.097C68.9731 126.822 70.3221 143.257 70.3221 143.257C70.3221 143.257 79.0681 143.51 81.6761 142.757C83.5669 142.106 85.3432 141.161 86.9401 139.957C86.9401 139.957 88.5401 146.182 92.9281 146.529L97.3111 146.876C97.3111 146.876 100.202 135.058 97.9112 129.729C93.1762 118.679 83.7091 124.21 79.5731 126.097Z" fill="#0F2D5C"/>
<path d="M91.1422 142.007C90.5142 143.622 89.0291 144.552 87.8241 144.084C86.6191 143.616 86.1522 141.927 86.7802 140.311C87.4082 138.695 88.8933 137.765 90.0983 138.234C91.3033 138.703 91.7702 140.395 91.1422 142.007Z" fill="#F09959"/>
<path d="M96.3799 138.44C96.3799 138.44 98.9238 147.222 102.455 147.671C105.986 148.12 128.555 149.428 122.789 173.114C118.778 189.582 111.664 192.332 118.866 198.384C124.866 203.426 131.954 197.115 131.954 197.115C131.954 197.115 135.423 215.934 121.405 215.693C107.387 215.452 100.693 200.714 106.405 187.193C112.117 173.672 100.805 170.212 100.337 162.616C99.9864 158.624 99.9864 154.609 100.337 150.616L96.3799 145.9V138.44Z" fill="#0F2D5C"/>
<path d="M307.98 89.285C307.98 92.0799 306.87 94.7603 304.894 96.7366C302.918 98.7128 300.237 99.8231 297.442 99.8231C294.648 99.8231 291.967 98.7128 289.991 96.7366C288.014 94.7603 286.904 92.0799 286.904 89.285C286.904 86.4902 288.014 83.8098 289.991 81.8336C291.967 79.8573 294.648 78.7471 297.442 78.7471C300.237 78.7471 302.918 79.8573 304.894 81.8336C306.87 83.8098 307.98 86.4902 307.98 89.285Z" fill="#F37168"/>
<path d="M297.341 85.5812C297.341 85.5812 293.661 82.3362 291.057 85.4542C287.482 89.7342 297.341 95.1782 297.341 95.1782C297.341 95.1782 307.377 89.5602 303.867 85.2302C301.211 81.9552 297.341 85.5812 297.341 85.5812Z" fill="white"/>
<path d="M280.318 69.7581C284.936 69.7581 288.679 66.0148 288.679 61.3971C288.679 56.7795 284.936 53.0361 280.318 53.0361C275.7 53.0361 271.957 56.7795 271.957 61.3971C271.957 66.0148 275.7 69.7581 280.318 69.7581Z" fill="#F37168"/>
<path d="M280.238 58.458C280.238 58.458 277.318 55.883 275.251 58.358C272.415 61.758 280.238 66.074 280.238 66.074C280.238 66.074 288.202 61.616 285.416 58.18C283.309 55.582 280.238 58.458 280.238 58.458Z" fill="white"/>
<path d="M299.391 40.8568C304.135 40.8568 307.981 37.0109 307.981 32.2668C307.981 27.5226 304.135 23.6768 299.391 23.6768C294.647 23.6768 290.801 27.5226 290.801 32.2668C290.801 37.0109 294.647 40.8568 299.391 40.8568Z" fill="#F37168"/>
<path d="M299.307 29.2467C299.307 29.2467 296.307 26.6018 294.184 29.1468C291.269 32.6358 299.307 37.0738 299.307 37.0738C299.307 37.0738 307.488 32.4938 304.626 28.9648C302.462 26.2918 299.307 29.2467 299.307 29.2467Z" fill="white"/>
<path d="M288.161 5.68799C288.161 7.19654 287.562 8.64332 286.495 9.71002C285.428 10.7767 283.982 11.376 282.473 11.376C280.965 11.376 279.518 10.7767 278.451 9.71002C277.384 8.64332 276.785 7.19654 276.785 5.68799C276.785 4.17944 277.384 2.73269 278.451 1.66599C279.518 0.599278 280.965 0 282.473 0C283.982 0 285.428 0.599278 286.495 1.66599C287.562 2.73269 288.161 4.17944 288.161 5.68799Z" fill="#F37168"/>
<path d="M282.418 3.68916C282.418 3.68916 280.432 1.93716 279.025 3.62016C277.095 5.93016 282.418 8.86919 282.418 8.86919C282.418 8.86919 287.835 5.83619 285.94 3.49919C284.507 1.73219 282.418 3.68916 282.418 3.68916Z" fill="white"/>
<path d="M101.372 113.123C105.487 109.008 105.487 102.336 101.372 98.2203C97.2567 94.1049 90.5844 94.1049 86.4691 98.2203C82.3537 102.336 82.3537 109.008 86.4691 113.123C90.5844 117.239 97.2567 117.239 101.372 113.123Z" fill="#F37168"/>
<path d="M93.8162 101.968C93.8162 101.968 90.1372 98.7228 87.5322 101.841C83.9562 106.121 93.8162 111.565 93.8162 111.565C93.8162 111.565 103.853 105.946 100.342 101.617C97.6871 98.3428 93.8162 101.968 93.8162 101.968Z" fill="white"/>
<path d="M101.781 80.0132C105.893 78.3222 107.856 73.6182 106.165 69.5064C104.474 65.3947 99.7697 63.4322 95.6579 65.1232C91.5461 66.8142 89.5837 71.5182 91.2747 75.63C92.9656 79.7417 97.6697 81.7042 101.781 80.0132Z" fill="#F37168"/>
<path d="M98.6418 69.7388C98.6418 69.7388 95.8307 67.2597 93.8417 69.6387C91.1107 72.9087 98.6418 77.0677 98.6418 77.0677C98.6418 77.0677 106.31 72.7758 103.628 69.4678C101.599 66.9688 98.6418 69.7388 98.6418 69.7388Z" fill="white"/>
<path d="M75.3146 54.909C79.0702 54.909 82.1146 51.8645 82.1146 48.109C82.1146 44.3535 79.0702 41.309 75.3146 41.309C71.5591 41.309 68.5146 44.3535 68.5146 48.109C68.5146 51.8645 71.5591 54.909 75.3146 54.909Z" fill="#F37168"/>
<path d="M75.2489 45.7192C75.2489 45.7192 72.8737 43.6252 71.1937 45.6372C68.8857 48.3992 75.2489 51.9122 75.2489 51.9122C75.2489 51.9122 81.7258 48.2862 79.4598 45.4932C77.7458 43.3802 75.2489 45.7192 75.2489 45.7192Z" fill="white"/>
<path d="M270.691 183.308H167.061C165.815 183.308 164.612 182.849 163.681 182.019C162.751 181.19 162.158 180.046 162.016 178.808L150.703 79.5158C150.622 78.805 150.692 78.085 150.908 77.4032C151.125 76.7214 151.483 76.093 151.96 75.5593C152.436 75.0255 153.02 74.5985 153.673 74.3062C154.326 74.0138 155.033 73.8627 155.748 73.8628H259.377C260.623 73.8625 261.827 74.3211 262.757 75.1509C263.688 75.9808 264.281 77.124 264.423 78.3628L275.736 177.655C275.817 178.366 275.747 179.085 275.53 179.767C275.313 180.449 274.955 181.077 274.479 181.611C274.003 182.145 273.419 182.572 272.766 182.864C272.113 183.157 271.406 183.308 270.691 183.308Z" fill="#430A56"/>
<path d="M224.023 95.3867C228.398 104.136 224.777 114.211 216.171 117.771C207.509 121.354 198.038 119.319 193.663 110.571C189.288 101.823 192.537 91.3297 200.921 87.1377C209.305 82.9457 219.648 86.6377 224.023 95.3867Z" fill="#FFC34E"/>
<path d="M200.441 118.86C199.466 118.86 197.553 118.516 195.125 116.36C192.988 114.324 191.575 111.646 191.098 108.733C190.336 104.759 190.833 100.192 192.574 95.1581C192.595 95.0977 192.627 95.042 192.67 94.9942C192.712 94.9465 192.764 94.9075 192.821 94.8797C192.879 94.8518 192.942 94.8356 193.005 94.8319C193.069 94.8282 193.133 94.8371 193.194 94.8581C193.254 94.8791 193.31 94.9118 193.357 94.9543C193.405 94.9968 193.444 95.0484 193.472 95.106C193.5 95.1636 193.516 95.226 193.52 95.2899C193.524 95.3537 193.514 95.4177 193.493 95.4781C191.808 100.348 191.325 104.747 192.055 108.551C192.491 111.253 193.795 113.738 195.771 115.632C198.82 118.337 200.863 117.85 200.883 117.845C201.008 117.811 201.141 117.829 201.253 117.893C201.366 117.958 201.448 118.064 201.482 118.189C201.5 118.25 201.506 118.315 201.498 118.378C201.491 118.441 201.472 118.503 201.441 118.559C201.409 118.614 201.368 118.663 201.317 118.703C201.267 118.743 201.21 118.772 201.149 118.789C200.917 118.843 200.679 118.867 200.441 118.86Z" fill="#FFC34E"/>
<path d="M245.312 130.984C245.312 130.984 243.112 130.21 241.944 125.415C241.344 122.947 242.944 118.679 244.278 117.345C243.411 114.877 240.077 105.667 241.543 105.673C243.025 105.679 246.344 115.873 246.344 115.873C246.344 115.873 248.144 106.402 249.279 106.535C250.414 106.668 249.279 116.406 249.279 116.406C249.279 116.406 253.31 117.085 254.548 120.741C255.786 124.397 251.921 130.128 251.921 130.928C251.921 131.728 251.479 134.281 251.479 134.281L245.144 133.281L245.312 130.984Z" fill="#E38540"/>
<path d="M250.283 116.091C251.353 116.3 252.315 116.879 253.003 117.725C253.485 117.912 253.895 118.247 254.173 118.683C254.451 119.118 254.584 119.631 254.551 120.147C254.497 121.035 252.277 124.047 250.78 125.232C248.948 126.683 248.053 125.282 248.48 124.815C248.907 124.348 247.613 124.348 247.08 123.748C246.547 123.148 248.747 118.904 249.08 117.725C249.413 116.546 249.678 116.014 250.283 116.091Z" fill="#F09959"/>
<path d="M246.997 122.88C250.081 123.413 252.482 123.28 252.349 122.413C252.216 121.546 249.337 120.193 248.549 119.699C247.761 119.205 246.997 122.88 246.997 122.88Z" fill="#E38540"/>
<path d="M246.947 125.482C248.647 128.69 246.614 131.351 245.313 130.982C244.012 130.613 242.088 127.682 241.813 124.282C241.538 120.882 241.744 120.815 243.013 119.082C244.282 117.349 247.881 119.015 248.881 119.982C249.881 120.949 252.016 121.816 251.081 122.416C250.146 123.016 247.481 122.416 246.51 122.016C245.539 121.616 245.61 122.616 245.145 123.083C244.68 123.55 245.747 123.213 246.947 125.482Z" fill="#F09959"/>
<path d="M213.818 129.433C224.869 135.486 238.006 165.042 238.006 165.042C238.006 165.042 241.429 138.616 244.478 132.685C245.26 131.164 251.478 132.211 252.478 133.748C253.478 135.285 255.678 173.319 250.678 179.914C245.678 186.509 233.47 184.814 233.47 184.814L217.453 170.905L213.818 129.433Z" fill="#A8CEFF"/>
<path d="M242.948 136.875C240.284 145.303 236.877 163.499 237.748 168.434C238.619 173.369 240.548 175.504 240.548 175.504C240.548 175.504 239.081 163.299 240.081 156.495C241.081 149.691 242.948 136.875 242.948 136.875Z" fill="#93BBF0"/>
<path d="M231.637 183.222C237.265 182.637 242.037 182.108 240.876 182.108C238.276 182.108 226.202 175.145 227.203 168.368C228.204 161.591 228.337 148.159 225.003 142.222L223.88 139.746C220.28 134.822 217.669 131.546 213.818 129.433L217.45 170.902L231.637 183.222Z" fill="#93BBF0"/>
<path d="M195.51 126.364C195.51 126.364 179.67 135.215 175.978 137.097C172.286 138.979 186.322 194.226 189.444 196.597C192.566 198.968 220.044 197.004 223.178 194.021C226.312 191.038 220.778 181.883 223.485 163.554C226.192 145.225 215.226 129.399 213.817 129.434C212.408 129.469 203.217 126.367 203.217 126.367L195.51 126.364Z" fill="#A8CEFF"/>
<path d="M189.445 196.596C192.567 198.964 212.234 199.017 220.605 196.412C221.551 196.118 225.84 194.412 225.94 192.802C224.93 192.612 220.919 193.094 219.291 192.72C213.629 191.42 210.511 184.405 210.511 184.405C210.511 184.405 207.393 183.283 200.418 180.329C193.443 177.375 196.318 168.429 196.151 164.492C195.984 160.555 189.258 147.671 176.622 137.906L175.463 138.425C174.561 147.405 186.557 194.406 189.445 196.596Z" fill="#93BBF0"/>
<path d="M174.734 138.137C167.104 162.537 156.286 190.217 158.009 190.217C159.732 190.217 203.546 191.988 205.27 190.517C206.994 189.046 206.501 183.38 206.256 182.642C206.011 181.904 181.346 177.527 181.346 177.527C181.346 177.527 184.594 171.198 185.825 158.827C187.056 146.456 176.182 133.51 174.734 138.137Z" fill="#A8CEFF"/>
<path d="M201.313 105.167L195.166 127.629C195.166 127.629 205.553 143.841 208.408 142.401C211.263 140.961 206.808 129.224 206.808 127.629C206.808 126.034 211.26 109.578 211.26 109.578L201.313 105.167Z" fill="#F09959"/>
<path d="M207.025 128.773C206.918 128.399 206.846 128.016 206.812 127.628C206.812 126.033 211.264 109.577 211.264 109.577L201.313 105.166L199.279 112.599C200.561 118.522 203.214 124.062 207.025 128.773Z" fill="#E38540"/>
<path d="M224.311 104.795C225.482 111.308 224.711 119.959 218.927 122.158C213.143 124.357 206.177 120.15 203.366 112.758C200.555 105.366 202.966 97.5937 208.751 95.3947C214.536 93.1957 222.912 97.0137 224.311 104.795Z" fill="#F09959"/>
<path d="M212.111 114.652C212.111 114.652 217.052 116.552 219.77 116.514C220.821 116.576 221.875 116.501 222.907 116.292C222.907 116.292 221.03 120.055 218.638 119.82C217.18 119.644 215.798 119.068 214.646 118.156C213.494 117.244 212.617 116.031 212.111 114.652Z" fill="white"/>
<path d="M204.739 108.465C205.55 110.742 204.846 113.072 203.167 113.67C201.488 114.268 199.467 112.907 198.659 110.63C197.851 108.353 198.552 106.023 200.232 105.425C201.912 104.827 203.928 106.183 204.739 108.465Z" fill="#F09959"/>
<path d="M224.38 96.6118C222.411 111.896 203.842 109.927 203.842 109.927C203.842 109.927 200.011 104.892 198.288 107.533C196.565 110.174 200.68 92.0328 211.335 91.4658C214.836 91.2778 224.38 96.6118 224.38 96.6118Z" fill="#FFC34E"/>
<path d="M195.449 99.5859C201.004 99.5859 205.507 95.3612 205.507 90.1499C205.507 84.9385 201.004 80.7139 195.449 80.7139C189.894 80.7139 185.391 84.9385 185.391 90.1499C185.391 95.3612 189.894 99.5859 195.449 99.5859Z" fill="#FFC34E"/>
<path d="M139.875 88.0938C155.616 88.0938 168.376 75.3335 168.376 59.5928C168.376 43.8521 155.616 31.0918 139.875 31.0918C124.134 31.0918 111.374 43.8521 111.374 59.5928C111.374 75.3335 124.134 88.0938 139.875 88.0938Z" fill="#0E3A82"/>
<path d="M139.238 40.8198C142.938 40.3098 146.119 49.4857 145.864 52.4197C145.609 55.3537 152.746 52.0377 156.188 54.5867C159.63 57.1357 158.61 70.3867 156.188 71.2817C153.766 72.1767 144 72.3018 140.854 70.6448C139.267 69.6901 137.435 69.2218 135.584 69.2977L133.964 55.4327C135.49 54.8784 136.892 54.0289 138.089 52.9327C140.257 51.0147 139.238 40.8198 139.238 40.8198ZM122.798 73.3198C123.689 74.0848 133.758 76.5058 134.268 71.4078C134.778 66.3098 132.229 55.4778 132.229 55.4778C132.229 55.4778 125.229 55.1238 122.799 56.3638C121.864 56.8398 121.906 72.5527 122.797 73.3177L122.798 73.3198Z" fill="white"/>
<path d="M268.502 292.741C276.74 292.741 283.418 286.063 283.418 277.825C283.418 269.587 276.74 262.909 268.502 262.909C260.264 262.909 253.586 269.587 253.586 277.825C253.586 286.063 260.264 292.741 268.502 292.741Z" fill="#C1C765"/>
<path d="M261.387 285.73C259.187 272.551 269.272 272.23 269.272 272.23V268.325L277.266 276.319L269.566 284.019V279.55C269.566 279.55 265.694 279.713 264.23 281.828C262.766 283.943 261.387 285.73 261.387 285.73Z" fill="white"/>
<path d="M227.268 237.3C227.53 236.187 226.841 235.072 225.729 234.81C224.616 234.547 223.501 235.236 223.238 236.349C222.976 237.461 223.665 238.576 224.777 238.839C225.89 239.102 227.005 238.413 227.268 237.3Z" fill="white"/>
<path d="M227.268 246.617C227.53 245.504 226.841 244.389 225.729 244.127C224.616 243.864 223.501 244.553 223.238 245.666C222.976 246.778 223.665 247.893 224.777 248.156C225.89 248.418 227.005 247.729 227.268 246.617Z" fill="white"/>
<path d="M219.56 241.64C219.56 241.912 219.507 242.181 219.403 242.433C219.299 242.684 219.146 242.912 218.954 243.105C218.762 243.297 218.534 243.449 218.282 243.554C218.031 243.658 217.762 243.711 217.49 243.711C216.941 243.711 216.414 243.493 216.026 243.105C215.637 242.716 215.419 242.189 215.419 241.64C215.419 241.091 215.637 240.564 216.026 240.176C216.414 239.787 216.941 239.569 217.49 239.569C217.762 239.569 218.031 239.623 218.282 239.727C218.534 239.831 218.762 239.984 218.954 240.176C219.146 240.368 219.299 240.596 219.403 240.848C219.507 241.099 219.56 241.368 219.56 241.64Z" fill="white"/>
<path d="M225.252 246.942C225.111 246.942 224.973 246.905 224.852 246.834L217.087 242.334C216.967 242.265 216.867 242.166 216.797 242.047C216.727 241.928 216.689 241.792 216.687 241.654C216.685 241.516 216.719 241.38 216.785 241.258C216.851 241.137 216.948 241.035 217.066 240.962L224.83 236.145C225.01 236.034 225.227 235.999 225.433 236.047C225.639 236.096 225.818 236.224 225.93 236.404C226.041 236.584 226.076 236.802 226.028 237.008C225.979 237.214 225.851 237.393 225.671 237.504L219.041 241.618L225.651 245.449C225.742 245.502 225.821 245.572 225.885 245.655C225.949 245.739 225.996 245.834 226.023 245.936C226.05 246.037 226.057 246.143 226.043 246.248C226.029 246.352 225.995 246.452 225.942 246.543C225.872 246.664 225.771 246.765 225.65 246.835C225.529 246.905 225.392 246.942 225.252 246.942Z" fill="white"/>
<defs>
<linearGradient id="paint0_linear_1622_431" x1="326.951" y1="62.0788" x2="16.7105" y2="209.239" gradientUnits="userSpaceOnUse">
<stop stop-color="#DB5FDD"/>
<stop offset="1" stop-color="#4C13BF"/>
</linearGradient>
<linearGradient id="paint1_linear_1622_431" x1="2551.76" y1="140.448" x2="2428.84" y2="178.847" gradientUnits="userSpaceOnUse">
<stop stop-color="#FFC34E"/>
<stop offset="1" stop-color="#FB8627"/>
</linearGradient>
<linearGradient id="paint2_linear_1622_431" x1="2532.58" y1="124.272" x2="2417.16" y2="220.579" gradientUnits="userSpaceOnUse">
<stop stop-color="#FFC34E"/>
<stop offset="1" stop-color="#FB8627"/>
</linearGradient>
<linearGradient id="paint3_linear_1622_431" x1="2555.48" y1="103.094" x2="2460.01" y2="195.148" gradientUnits="userSpaceOnUse">
<stop stop-color="#FFC34E"/>
<stop offset="1" stop-color="#FB8627"/>
</linearGradient>
<linearGradient id="paint4_linear_1622_431" x1="2549.58" y1="131.831" x2="2440.79" y2="253.003" gradientUnits="userSpaceOnUse">
<stop stop-color="#FFC34E"/>
<stop offset="1" stop-color="#FB8627"/>
</linearGradient>
</defs>
</svg>
